<svg xmlns="http://www.w3.org/2000/svg" viewBox="0 0 24 24" fill="none">
  <path d="M12 5.2c-2.3-1.5-5.8-1.5-8.6-.3A1.8 1.8 0 0 0 2.3 6.5v10.2a1.8 1.8 0 0 0 2.5 1.7c2.2-1 5.1-.9 7.2.3V5.2Z" stroke="#4e5a72" stroke-width="1.8" stroke-linejoin="round"/>
  <path d="M12 5.2c2.3-1.5 5.8-1.5 8.6-.3a1.8 1.8 0 0 1 1.1 1.6v10.2a1.8 1.8 0 0 1-2.5 1.7c-2.2-1-5.1-.9-7.2.3V5.2Z" stroke="#4e5a72" stroke-width="1.8" stroke-linejoin="round"/>
  <path d="M12 18.7V7.3" stroke="#4e5a72" stroke-width="1.8" stroke-linecap="round"/>
</svg>
